<svg xmlns="http://www.w3.org/2000/svg" width="48.06" height="54.926" viewBox="0 0 48.06 54.926"><defs><style>.a{fill:#e30613;}</style></defs><path class="a" d="M42.911,6.866H37.761V1.287A1.291,1.291,0,0,0,36.474,0h-.858a1.291,1.291,0,0,0-1.287,1.287V6.866h-20.6V1.287A1.291,1.291,0,0,0,12.444,0h-.858A1.291,1.291,0,0,0,10.3,1.287V6.866H5.149A5.151,5.151,0,0,0,0,12.015V49.776a5.151,5.151,0,0,0,5.149,5.149H42.911a5.151,5.151,0,0,0,5.149-5.149V12.015A5.151,5.151,0,0,0,42.911,6.866ZM5.149,10.3H42.911a1.721,1.721,0,0,1,1.716,1.716v5.149H3.433V12.015A1.721,1.721,0,0,1,5.149,10.3ZM42.911,51.493H5.149a1.721,1.721,0,0,1-1.716-1.716V20.6H44.627V49.776A1.721,1.721,0,0,1,42.911,51.493ZM15.877,34.329H11.586A1.291,1.291,0,0,1,10.3,33.041V28.75a1.291,1.291,0,0,1,1.287-1.287h4.291a1.291,1.291,0,0,1,1.287,1.287v4.291A1.291,1.291,0,0,1,15.877,34.329Zm10.3,0H21.884A1.291,1.291,0,0,1,20.6,33.041V28.75a1.291,1.291,0,0,1,1.287-1.287h4.291a1.291,1.291,0,0,1,1.287,1.287v4.291A1.291,1.291,0,0,1,26.176,34.329Zm10.3,0H32.183A1.291,1.291,0,0,1,30.9,33.041V28.75a1.291,1.291,0,0,1,1.287-1.287h4.291a1.291,1.291,0,0,1,1.287,1.287v4.291A1.291,1.291,0,0,1,36.474,34.329Zm-10.3,10.3H21.884A1.291,1.291,0,0,1,20.6,43.34V39.049a1.291,1.291,0,0,1,1.287-1.287h4.291a1.291,1.291,0,0,1,1.287,1.287V43.34A1.291,1.291,0,0,1,26.176,44.627Zm-10.3,0H11.586A1.291,1.291,0,0,1,10.3,43.34V39.049a1.291,1.291,0,0,1,1.287-1.287h4.291a1.291,1.291,0,0,1,1.287,1.287V43.34A1.291,1.291,0,0,1,15.877,44.627Zm20.6,0H32.183A1.291,1.291,0,0,1,30.9,43.34V39.049a1.291,1.291,0,0,1,1.287-1.287h4.291a1.291,1.291,0,0,1,1.287,1.287V43.34A1.291,1.291,0,0,1,36.474,44.627Z"/></svg>