<svg xmlns="http://www.w3.org/2000/svg" width="63.198" height="55.303" viewBox="0 0 63.198 55.303"><defs><style>.a{fill:#e30613;}</style></defs><path class="a" d="M94.882,56.35,87.352,50.2V40.644a.741.741,0,0,0-.741-.741H84.142a.741.741,0,0,0-.741.741V46.98L66.142,32.892a3.97,3.97,0,0,0-4.985,0L32.417,56.35a.988.988,0,0,0-.143,1.388l1.247,1.532a.988.988,0,0,0,1.383.147L39.948,55.3v30a1.975,1.975,0,0,0,1.975,1.975h15.8A1.975,1.975,0,0,0,59.7,85.294v-15.8l7.9.037V85.341a1.975,1.975,0,0,0,1.975,1.975l15.8-.041A1.975,1.975,0,0,0,87.352,85.3v-30L92.4,59.417a.988.988,0,0,0,1.389-.143l1.247-1.532a.988.988,0,0,0-.149-1.391ZM83.388,83.335H83.4l-11.851.037V67.549a1.981,1.981,0,0,0-1.969-1.975l-11.851-.033a1.975,1.975,0,0,0-1.981,1.975V83.335H43.9V52.073L63.65,35.954,83.4,52.073Z" transform="translate(-32.054 -32.013)"/></svg>