<svg xmlns="http://www.w3.org/2000/svg" width="48.06" height="36.045" viewBox="0 0 48.06 36.045"><defs><style>.a{fill:#e30613;}</style></defs><path class="a" d="M3.04,79.019a3,3,0,1,0,0,6.007,3,3,0,1,0,0-6.007ZM3.04,64a3,3,0,1,0,0,6.007A3,3,0,1,0,3.04,64Zm0,30.038a3,3,0,1,0,0,6.007,3,3,0,1,0,0-6.007ZM47.309,65.5H12.766a.751.751,0,0,0-.751.751v1.5a.751.751,0,0,0,.751.751H47.309a.751.751,0,0,0,.751-.751v-1.5A.751.751,0,0,0,47.309,65.5Zm0,15.019H12.766a.751.751,0,0,0-.751.751v1.5a.751.751,0,0,0,.751.751H47.309a.751.751,0,0,0,.751-.751v-1.5A.751.751,0,0,0,47.309,80.521Zm0,15.019H12.766a.751.751,0,0,0-.751.751v1.5a.751.751,0,0,0,.751.751H47.309a.751.751,0,0,0,.751-.751v-1.5A.751.751,0,0,0,47.309,95.539Z" transform="translate(0 -64)"/></svg>