<svg xmlns="http://www.w3.org/2000/svg" width="34.329" height="54.926" viewBox="0 0 34.329 54.926"><defs><style>.a{fill:#e30613;}</style></defs><path class="a" d="M16.537,52.4l-4.5-10.928L7.021,47.135A4.023,4.023,0,0,1,0,44.359V4.137A4.023,4.023,0,0,1,6.951,1.284L33.207,29.438a4.143,4.143,0,0,1-2.917,6.983H23.241l4.592,11.161a4.159,4.159,0,0,1-2.2,5.429L21.775,54.62A4,4,0,0,1,16.537,52.4ZM13.121,35.075l6.591,16.017a.573.573,0,0,0,.743.359l3.862-1.609a.74.74,0,0,0,.342-.954l-6.542-15.9H30.29a.715.715,0,0,0,.407-1.209L4.44,3.626c-.387-.414-1.008-.1-1.008.511V44.359c0,.62.637.93,1.019.5l8.669-9.783Z" transform="translate(0 0)"/></svg>