<svg xmlns="http://www.w3.org/2000/svg" width="48.125" height="55" viewBox="0 0 48.125 55"><defs><style>.a{fill:#e30613;}</style></defs><path class="a" d="M42.249,15.179l1.88-1.88a1.29,1.29,0,0,0,0-1.826l-.612-.612a1.29,1.29,0,0,0-1.826,0l-1.88,1.88A23.977,23.977,0,0,0,25.663,6.918V3.438h2.686a1.293,1.293,0,0,0,1.289-1.289V1.289A1.293,1.293,0,0,0,28.349,0H19.755a1.293,1.293,0,0,0-1.289,1.289v.859a1.293,1.293,0,0,0,1.289,1.289h2.471v3.5a23.9,23.9,0,0,0-13.911,5.8h0l-1.88-1.88a1.29,1.29,0,0,0-1.826,0L4,11.473A1.29,1.29,0,0,0,4,13.3l1.88,1.88h0a24.063,24.063,0,1,0,36.373,0ZM24.063,51.563A20.625,20.625,0,1,1,44.688,30.938,20.617,20.617,0,0,1,24.063,51.563Z"/><path class="a" d="M148.142,193.268l-.784-.784a1.686,1.686,0,0,0-2.363,0l-6.682,6.682-6.682-6.682a1.686,1.686,0,0,0-2.363,0l-.784.784a1.686,1.686,0,0,0,0,2.363l6.682,6.682-6.682,6.682a1.686,1.686,0,0,0,0,2.363l.784.784a1.686,1.686,0,0,0,2.363,0l6.682-6.682,6.682,6.682a1.686,1.686,0,0,0,2.363,0l.784-.784a1.686,1.686,0,0,0,0-2.363l-6.682-6.682,6.682-6.682A1.686,1.686,0,0,0,148.142,193.268Z" transform="translate(-114.25 -171.375)"/></svg>