<svg xmlns="http://www.w3.org/2000/svg" width="29" height="29" viewBox="0 0 29 29">
  <g id="Group_637" data-name="Group 637" transform="translate(-571 -3447)">
    <circle id="Ellipse_2" data-name="Ellipse 2" cx="14.5" cy="14.5" r="14.5" transform="translate(571 3447)" fill="#e30613"/>
    <g id="Group_621" data-name="Group 621" transform="translate(-446.078 65.018)">
      <path id="angle-right-light" d="M8.5,7.978,1.614,14.757a.7.7,0,0,1-.993,0l-.415-.415a.7.7,0,0,1,0-.993L6.184,7.482.212,1.614a.7.7,0,0,1,0-.993L.627.206a.7.7,0,0,1,.993,0L8.5,6.985A.707.707,0,0,1,8.5,7.978Z" transform="translate(1039.04 3392.982) rotate(90)" fill="#fff"/>
    </g>
  </g>
</svg>
