<?xml version="1.0" encoding="utf-8"?>
<!-- Generator: Adobe Illustrator 24.2.3, SVG Export Plug-In . SVG Version: 6.00 Build 0)  -->
<svg version="1.1" xmlns="http://www.w3.org/2000/svg" xmlns:xlink="http://www.w3.org/1999/xlink" x="0px" y="0px"
	 viewBox="0 0 100 60" style="enable-background:new 0 0 100 60;" xml:space="preserve">
<style type="text/css">
	.st0{display:none;}
	.st1{display:inline;fill:#0070B6;}
	.st2{fill-rule:evenodd;clip-rule:evenodd;fill:#FFFFFF;}
	.st3{fill:#FFFFFF;}
	.st4{fill:#0070B6;}
	.st5{fill:#54EFEC;}
</style>
<g id="HG" class="st0">
	<rect x="0" class="st1" width="100" height="60"/>
</g>
<g id="Icon">
	<g>
		<path class="st5" d="M46.9,19.9h-0.5c-0.6,0-1,0.4-1,0.9v3.8h2.5v-3.8C47.9,20.3,47.5,19.9,46.9,19.9L46.9,19.9z"/>
		<path class="st5" d="M53.5,19.9H53c-0.6,0-1,0.4-1,0.9v3.8h2.5v-3.8C54.5,20.3,54.1,19.9,53.5,19.9L53.5,19.9z"/>
		<path class="st5" d="M50,13.1c-9.5,0-17.2,7.7-17.2,17.2c0,4.6,1.8,8.9,5,12.2c1.9,1.9,4.3,3.4,6.9,4.2c0.2,0.1,0.3,0.1,0.5,0.1
			c0.7,0,1.3-0.4,1.6-1.1c0.3-0.9-0.2-1.8-1.1-2.1c-2.1-0.7-4-1.9-5.5-3.4c-2.6-2.6-4.1-6.1-4.1-9.8c0-7.7,6.2-13.9,13.9-13.9
			s13.9,6.2,13.9,13.9c0,3.7-1.4,7.2-4.1,9.8c-1,0.9-3.5,2.7-5,2.7c-0.8,0-1.3-0.2-1.8-0.8c-1.2-1.3-1.4-4-1.4-5.9
			c2.9-0.1,5.2-2.5,5.2-5.4v-5.2H43.2v5.2c0,2.9,2.2,5.2,5,5.4c0,2.2,0.3,5.9,2.3,8.1c1.1,1.2,2.6,1.9,4.3,1.9
			c3.2,0,6.9-3.3,7.3-3.6l0.1-0.1c3.3-3.3,5.1-7.6,5.1-12.2C67.2,20.9,59.5,13.1,50,13.1L50,13.1z"/>
	</g>
</g>
</svg>
