<?xml version="1.0" encoding="utf-8"?>
<!-- Generator: Adobe Illustrator 24.2.3, SVG Export Plug-In . SVG Version: 6.00 Build 0)  -->
<svg version="1.1" xmlns="http://www.w3.org/2000/svg" xmlns:xlink="http://www.w3.org/1999/xlink" x="0px" y="0px"
	 viewBox="0 0 100 60" style="enable-background:new 0 0 100 60;" xml:space="preserve">
<style type="text/css">
	.st0{fill:#FFFFFF;}
</style>
<g id="HG">
</g>
<g id="Icon">
	<g>
		<g>
			<g>
				<g>
					<path class="st0" d="M14,38.7c0.4,0.5,1.4,0.5,1.4,0.5l1.3,0c0-1.2,0.2-2.4,0.8-3.5c1.2-2.3,3.6-3.7,6.2-3.7
						c1.1,0,2.3,0.3,3.3,0.8c1.7,0.9,2.9,2.3,3.4,4.1c0.2,0.8,0.3,1.5,0.3,2.3H34h25.8l2.5-0.2c0-1.2,0.3-2.3,0.8-3.4
						c1.2-2.3,3.6-3.7,6.2-3.7c1.1,0,2.3,0.3,3.3,0.8c1.8,0.9,2.9,2.5,3.4,4.3l5.5-2.3c0.6-0.2,1-0.8,1-1.4c0-0.7-0.3-1.3-0.9-1.7
						c-9.1-6.5-20-10.5-20-10.5c-4.9-1.5-10-2.1-14.7-1.8c-0.7,0-1.4,0.3-2,0.7l-9.1,5.8c-0.3,0.2-0.6,0.3-1,0.4
						c-3.4,0.5-12.5,1.6-15.6,2.2c-0.7,0.1-1.4,0.5-1.9,1l-4.4,3.9c-0.5,0.5-0.7,1.2-0.5,1.8C13,36.5,13.8,38.5,14,38.7z M53.7,31.4
						h-3.5c-0.3,0-0.6-0.3-0.6-0.6c0-0.3,0.3-0.6,0.6-0.6h3.5c0.3,0,0.6,0.3,0.6,0.6C54.3,31.1,54,31.4,53.7,31.4z M58.7,26.8
						l0.9-1.6c0.3-0.6,1-0.8,1.6-0.6c1.8,0.7,3.7,1.5,5.8,2.6c0.3,0.1,0.1,0.5-0.2,0.5h-7.5C58.8,27.8,58.4,27.3,58.7,26.8z
						 M39.7,27.1c2.1-1.9,5-3.7,7.5-4.6c0,0,3.5-0.8,9.8,0.9c0.6,0.1,0.8,0.8,0.5,1.3l-1.2,2.2c-0.3,0.6-1,1-1.6,1H40
						C39.6,27.8,39.4,27.3,39.7,27.1z"/>
					<path class="st0" d="M26.3,34.1c-2.7-1.4-6.1-0.4-7.6,2.3c-0.5,0.9-0.7,1.9-0.6,2.8c0.1,1.9,1.1,3.7,3,4.7
						c2.7,1.4,6.1,0.4,7.6-2.3c0.4-0.8,0.6-1.6,0.6-2.4C29.4,37.2,28.3,35.1,26.3,34.1z M26.9,39.3c0,0.4-0.2,0.8-0.4,1.2
						c-0.8,1.6-2.8,2.1-4.3,1.3c-1-0.5-1.6-1.5-1.7-2.6c0-0.6,0.1-1.2,0.4-1.8c0.8-1.6,2.8-2.1,4.3-1.3C26.4,36.8,27,38,26.9,39.3z"
						/>
					<path class="st0" d="M72,34.1c-2.7-1.4-6.1-0.4-7.6,2.3c-0.5,0.8-0.7,1.8-0.7,2.7c0,2,1.1,3.9,3,4.9c2.7,1.4,6.1,0.4,7.6-2.3
						c0.7-1.3,0.8-2.7,0.5-4C74.4,36.2,73.5,34.9,72,34.1z M72.2,40.5c-0.8,1.6-2.8,2.1-4.3,1.3c-1.1-0.6-1.7-1.7-1.7-2.9
						c0-0.5,0.1-0.9,0.4-1.4c0.8-1.6,2.8-2.1,4.3-1.3c0.9,0.5,1.5,1.3,1.6,2.3C72.6,39.1,72.5,39.8,72.2,40.5z"/>
					<path class="st0" d="M32.5,40.5c-0.6,0-1.1,0.5-1.1,1c0,0.6,0.5,1,1.1,1H60c0.6,0,1.1-0.5,1.1-1c0-0.6-0.5-1-1.1-1H32.5z"/>
					<path class="st0" d="M81.7,29.6c0.1,0.1,0.2,0,0.2-0.1v-4.8c1.8-0.1,3.3-0.6,4-1.1c0.2-0.1,0.1-0.4-0.2-0.4h-8.7
						c-0.2,0-0.4,0.3-0.2,0.4c0.4,0.2,0.9,0.5,1.7,0.7c-0.6,0.7-1.5,1.4-2.2,1.8c-0.1,0.1-0.1,0.2,0,0.3L81.7,29.6z"/>
				</g>
			</g>
			<ellipse class="st0" cx="23.3" cy="39" rx="4.6" ry="4"/>
			<ellipse class="st0" cx="69.3" cy="39" rx="4.6" ry="4"/>
		</g>
		<ellipse class="st0" cx="52" cy="32" rx="4.6" ry="3"/>
	</g>
</g>
</svg>
