<?xml version="1.0" encoding="utf-8"?>
<!-- Generator: Adobe Illustrator 24.2.3, SVG Export Plug-In . SVG Version: 6.00 Build 0)  -->
<svg version="1.1" xmlns="http://www.w3.org/2000/svg" xmlns:xlink="http://www.w3.org/1999/xlink" x="0px" y="0px"
	 viewBox="0 0 100 60" style="enable-background:new 0 0 100 60;" xml:space="preserve">
<style type="text/css">
	.st0{fill:#CECECE;}
	.st1{fill-rule:evenodd;clip-rule:evenodd;fill:#FFFFFF;}
</style>
<g id="HG">
	<rect class="st0" width="100" height="60"/>
</g>
<g id="Icon">
	<path class="st1" d="M9.5,37.9c-0.9-2.5-0.8-5.4-0.5-6.6c0,0,1.4-0.4,1.7-0.9v-2.9c0-1.4,1.1-2.6,2.5-2.5l0,0l4.1,0.1
		c0,0,12.7-5.8,19-5.8h15.5c4.5,0,13.2,3.4,16.8,6.5c7.1,0.1,22.4,1,22.4,11v1.2v0.9v1.3c0,0.9-0.8,1.7-1.7,1.7h-4.3
		c0.3-0.8,0.5-1.7,0.5-2.6c0-3.9-3.2-7.1-7.1-7.1c-3.9,0-7.1,3.2-7.1,7.1c0,0.9,0.2,1.8,0.5,2.6H33.9c0.3-0.8,0.5-1.7,0.5-2.6
		c0-3.9-3.2-7.1-7.1-7.1s-7.1,3.2-7.1,7.1c0,0.9,0.2,1.8,0.5,2.6h-5.8c-1.6,0-4.3-3.2-4.3-3.2C10,39,9.5,37.9,9.5,37.9z M78.3,33.5
		c3.2,0,5.8,2.6,5.8,5.8c0,3.2-2.6,5.8-5.8,5.8c-3.2,0-5.8-2.6-5.8-5.8C72.5,36.1,75.1,33.5,78.3,33.5L78.3,33.5z M27.3,33.5
		c3.2,0,5.8,2.6,5.8,5.8c0,3.2-2.6,5.8-5.8,5.8c-3.2,0-5.8-2.6-5.8-5.8C21.5,36.1,24.1,33.5,27.3,33.5L27.3,33.5z M45.7,22.1h1.3
		l1.7,6c8.4,0,16.7-0.2,16.5-1.3c-0.2-2-8.1-5.5-12.4-5.5H38.8c-5.7,0-10,2.6-10,2.6c0,2.9,3.4,4.1,7.5,4.1c2.8,0,6.5,0,10.3,0.1
		L45.7,22.1L45.7,22.1z M68.5,25.9L68.5,25.9L68.5,25.9L68.5,25.9z"/>
</g>
</svg>
