<?xml version="1.0" encoding="utf-8"?>
<!-- Generator: Adobe Illustrator 24.2.3, SVG Export Plug-In . SVG Version: 6.00 Build 0)  -->
<svg version="1.1" xmlns="http://www.w3.org/2000/svg" xmlns:xlink="http://www.w3.org/1999/xlink" x="0px" y="0px"
	 viewBox="0 0 100 60" style="enable-background:new 0 0 100 60;" xml:space="preserve">
<style type="text/css">
	.st0{fill:#C3002F;}
	.st1{fill:#FFFFFF;}
</style>
<g id="HG">
	<rect x="0" class="st0" width="100" height="60"/>
</g>
<g id="Icon">
	<g>
		<path class="st1" d="M33.2,24.2C35.7,17,42.4,12.2,50,12.2c7.6,0,14.3,4.8,16.8,11.9l0,0.1h5.3v-0.6l-2.2-0.3
			c-1.4-0.2-1.7-0.8-2-1.5l-0.1-0.2C64.6,14.8,57.6,10.4,50,10.4c-7.6,0-14.6,4.4-17.8,11.3l-0.1,0.2c-0.4,0.8-0.7,1.4-2,1.5
			l-2.2,0.3v0.6L33.2,24.2L33.2,24.2z"/>
		<path class="st1" d="M66.8,35.8L66.8,35.8c-2.5,7.2-9.2,12-16.8,12h0c-7.6,0-14.3-4.8-16.8-11.9l0-0.1l-5.3,0v0.6l2.2,0.3
			c1.4,0.2,1.7,0.8,2,1.5l0.1,0.2c3.2,6.8,10.2,11.3,17.8,11.3h0c7.6,0,14.6-4.4,17.8-11.3l0.1-0.2c0.4-0.8,0.7-1.4,2-1.5l2.2-0.3
			v-0.6L66.8,35.8z"/>
		<g>
			<rect x="36" y="27.3" class="st1" width="1.2" height="5.5"/>
			<polygon class="st1" points="33.3,32.7 33.3,27.3 32.1,27.3 32.1,31.3 28.1,27.3 26.5,27.3 26.5,32.7 27.7,32.7 27.7,28.6 
				31.8,32.7 			"/>
			<path class="st1" d="M60.4,27.3L57,32.7h1.5l0.6-1h4l0.6,1h1.5l-3.4-5.5H60.4z M62.4,30.7h-2.7l1.4-2.2L62.4,30.7z"/>
			<path class="st1" d="M53.9,31.6c0,0-0.2,0-0.2,0h-4.9v1.1h4.9c0,0,0.3,0,0.4,0c1-0.1,1.5-0.9,1.5-1.7c0-0.8-0.5-1.6-1.4-1.7
				c-0.2,0-0.3,0-0.4,0h-3.2c-0.1,0-0.3,0-0.4,0c-0.3-0.1-0.3-0.3-0.3-0.5c0-0.2,0.1-0.4,0.4-0.5c0.1,0,0.2,0,0.3,0h4.7v-1.1h-4.7
				c-0.2,0-0.3,0-0.5,0c-0.8,0.1-1.4,0.8-1.4,1.6c0,0.7,0.4,1.5,1.4,1.6c0.2,0,0.4,0,0.5,0l3.1,0c0.1,0,0.2,0,0.2,0
				c0.4,0,0.5,0.3,0.5,0.5C54.4,31.3,54.2,31.5,53.9,31.6"/>
			<path class="st1" d="M44.8,31.6c0,0-0.2,0-0.2,0h-4.9v1.1h4.9c0,0,0.3,0,0.4,0c1-0.1,1.5-0.9,1.5-1.7c0-0.8-0.5-1.6-1.4-1.7
				c-0.2,0-0.3,0-0.4,0h-3.2c-0.1,0-0.3,0-0.4,0c-0.3-0.1-0.3-0.3-0.3-0.5c0-0.2,0.1-0.4,0.4-0.5c0.1,0,0.2,0,0.3,0h4.7v-1.1h-4.7
				c-0.2,0-0.3,0-0.5,0c-0.8,0.1-1.4,0.8-1.4,1.6c0,0.7,0.4,1.5,1.4,1.6c0.2,0,0.4,0,0.5,0l3.1,0c0.1,0,0.2,0,0.2,0
				c0.4,0,0.5,0.3,0.5,0.5C45.3,31.3,45.1,31.5,44.8,31.6"/>
			<polygon class="st1" points="73.5,32.7 73.5,27.3 72.3,27.3 72.3,31.3 68.2,27.3 66.7,27.3 66.7,32.7 67.9,32.7 67.9,28.6 
				72,32.7 			"/>
		</g>
	</g>
</g>
</svg>
