<?xml version="1.0" encoding="utf-8"?>
<!-- Generator: Adobe Illustrator 24.2.3, SVG Export Plug-In . SVG Version: 6.00 Build 0)  -->
<svg version="1.1" id="Ebene_1" focusable="false" xmlns="http://www.w3.org/2000/svg" xmlns:xlink="http://www.w3.org/1999/xlink"
	 x="0px" y="0px" viewBox="0 0 320 512" style="enable-background:new 0 0 320 512;" xml:space="preserve">
<style type="text/css">
	.st0{fill:#FFFFFF;}
</style>
<g>
	<path class="st0" d="M137.3,179.1h-3.6c-4.2,0-7.5,3.1-7.5,6.9v29.2h18.6V186C144.9,182.2,141.5,179.1,137.3,179.1L137.3,179.1z
		 M137.3,179.1"/>
	<path class="st0" d="M187.2,179.1h-3.5c-4.2,0-7.5,3.1-7.5,6.9v29.2h18.6V186C194.7,182.2,191.4,179.1,187.2,179.1L187.2,179.1z
		 M187.2,179.1"/>
	<path class="st0" d="M160.5,128c-72.2,0-130.9,58.7-130.9,130.9c0,34.9,13.5,67.7,38.1,92.4c14.6,14.6,32.6,25.7,52.1,32.1
		c1.3,0.4,2.6,0.6,3.9,0.6c5.3,0,10.2-3.4,12-8.7c2.2-6.6-1.5-13.7-8.1-15.9c-15.7-5.2-30.3-14.1-42-25.9
		c-19.9-20-30.8-46.4-30.8-74.6c0-58.3,47.4-105.7,105.7-105.7c58.3,0,105.7,47.4,105.7,105.7c0,28.3-11,54.8-30.9,74.7
		c-7.7,6.9-26.7,20.7-38.1,20.7c-5.9,0-10.2-1.8-13.8-5.8c-9-10-11-30.4-10.9-44.6c21.9-1.1,39.3-19.2,39.3-41.3v-39.3H109.2v39.3
		c0,21.7,16.7,39.5,38,41.2c-0.1,16.9,2.2,44.6,17.4,61.5c8.3,9.3,19.6,14.2,32.6,14.2c24.4,0,52.2-24.7,55.3-27.5l0.4-0.4
		c24.9-24.8,38.6-57.7,38.6-92.8C291.4,186.7,232.7,128,160.5,128L160.5,128z M160.5,128"/>
</g>
</svg>
