<?xml version="1.0" encoding="utf-8"?>
<!-- Generator: Adobe Illustrator 24.2.3, SVG Export Plug-In . SVG Version: 6.00 Build 0)  -->
<svg version="1.1" id="Ebene_1" xmlns="http://www.w3.org/2000/svg" xmlns:xlink="http://www.w3.org/1999/xlink" x="0px" y="0px"
	 viewBox="0 0 100 60" style="enable-background:new 0 0 100 60;" xml:space="preserve">
<style type="text/css">
	.st0{fill:#FFFFFF;}
</style>
<g id="HG">
</g>
<g id="Icon">
	<g>
		<g>
			<g>
				<g>
					<path class="st0" d="M85.9,35.1c0.2-0.6,0-1.3-0.5-1.8L81,29.4c-0.5-0.5-1.2-0.9-1.9-1c-3.1-0.6-12.2-1.7-15.6-2.2
						c-0.4-0.1-0.7-0.2-1-0.4L53.4,20c-0.6-0.4-1.3-0.7-2-0.7c-4.7-0.3-9.8,0.3-14.7,1.8c0,0-10.9,4-20,10.5c-0.6,0.4-0.9,1-0.9,1.7
						c0,0.6,0.4,1.2,1,1.4l5.5,2.3c0.5-1.8,1.6-3.4,3.4-4.3c1-0.5,2.2-0.8,3.3-0.8c2.6,0,5,1.4,6.2,3.7c0.5,1.1,0.8,2.2,0.8,3.4
						l2.5,0.2h25.8h3.3c0-0.8,0.1-1.5,0.3-2.3c0.5-1.8,1.7-3.2,3.4-4.1c1-0.5,2.2-0.8,3.3-0.8c2.6,0,5,1.4,6.2,3.7
						c0.6,1.1,0.8,2.3,0.8,3.5h1.3c0,0,1,0,1.4-0.5C84.5,38.5,85.3,36.5,85.9,35.1z M44,30.8c0-0.3,0.3-0.6,0.6-0.6h3.5
						c0.3,0,0.6,0.3,0.6,0.6c0,0.3-0.3,0.6-0.6,0.6h-3.5C44.3,31.4,44,31.1,44,30.8z M39,27.7h-7.5c-0.3,0-0.5-0.4-0.2-0.5
						c2.1-1.1,4-1.9,5.8-2.6c0.6-0.2,1.3,0,1.6,0.6l0.9,1.6C39.9,27.3,39.5,27.8,39,27.7z M58.3,27.9H43.6c-0.6,0-1.3-0.4-1.6-1
						l-1.2-2.2c-0.3-0.5-0.1-1.2,0.5-1.3c6.3-1.7,9.8-0.9,9.8-0.9c2.5,0.9,5.4,2.7,7.5,4.6C58.9,27.3,58.7,27.8,58.3,27.9z"/>
					<path class="st0" d="M69,39.2c0,0.8,0.2,1.6,0.6,2.4c1.5,2.7,4.9,3.7,7.6,2.3c1.9-1,2.9-2.8,3-4.7c0.1-0.9-0.1-1.9-0.6-2.8
						c-1.5-2.7-4.9-3.7-7.6-2.3C70,35.1,68.9,37.2,69,39.2z M73.1,36.1c1.5-0.8,3.5-0.3,4.3,1.3c0.3,0.6,0.4,1.2,0.4,1.8
						c-0.1,1.1-0.7,2.1-1.7,2.6c-1.5,0.8-3.5,0.3-4.3-1.3c-0.2-0.4-0.4-0.8-0.4-1.2C71.3,38,71.9,36.8,73.1,36.1z"/>
					<path class="st0" d="M23.5,37.7c-0.3,1.3-0.2,2.7,0.5,4c1.5,2.7,4.9,3.7,7.6,2.3c1.9-1,3-2.9,3-4.9c0-0.9-0.2-1.9-0.7-2.7
						c-1.5-2.7-4.9-3.7-7.6-2.3C24.8,34.9,23.9,36.2,23.5,37.7z M25.8,38.5c0.1-1,0.7-1.8,1.6-2.3c1.5-0.8,3.5-0.3,4.3,1.3
						c0.3,0.5,0.4,0.9,0.4,1.4c0,1.2-0.6,2.3-1.7,2.9c-1.5,0.8-3.5,0.3-4.3-1.3C25.8,39.8,25.7,39.1,25.8,38.5z"/>
					<path class="st0" d="M38.3,40.5c-0.6,0-1.1,0.4-1.1,1c0,0.5,0.5,1,1.1,1h27.5c0.6,0,1.1-0.4,1.1-1c0-0.5-0.5-1-1.1-1H38.3z"/>
					<path class="st0" d="M22,26.4c0.1-0.1,0.1-0.2,0-0.3c-0.7-0.4-1.6-1.1-2.2-1.8c0.8-0.2,1.3-0.5,1.7-0.7c0.2-0.1,0-0.4-0.2-0.4
						h-8.7c-0.3,0-0.4,0.3-0.2,0.4c0.7,0.5,2.2,1,4,1.1v4.8c0,0.1,0.1,0.2,0.2,0.1L22,26.4z"/>
				</g>
			</g>
			<ellipse class="st0" cx="75" cy="39" rx="4.6" ry="4"/>
			<ellipse class="st0" cx="29" cy="39" rx="4.6" ry="4"/>
		</g>
		<ellipse class="st0" cx="46.3" cy="32" rx="4.6" ry="3"/>
	</g>
</g>
</svg>
