<?xml version="1.0" encoding="utf-8"?>
<!-- Generator: Adobe Illustrator 24.2.3, SVG Export Plug-In . SVG Version: 6.00 Build 0)  -->
<svg version="1.1" id="Ebene_1" xmlns="http://www.w3.org/2000/svg" xmlns:xlink="http://www.w3.org/1999/xlink" x="0px" y="0px"
	 viewBox="0 0 100 60" style="enable-background:new 0 0 100 60;" xml:space="preserve">
<style type="text/css">
	.st0{fill:url(#SVGID_1_);}
	.st1{fill:url(#SVGID_2_);}
	.st2{fill:url(#SVGID_3_);}
	.st3{fill:#FFFFFF;}
</style>
<g>
	<linearGradient id="SVGID_1_" gradientUnits="userSpaceOnUse" x1="46.5558" y1="10.3185" x2="53.9731" y2="52.3837">
		<stop  offset="0" style="stop-color:#1B2D70"/>
		<stop  offset="7.865646e-02" style="stop-color:#13387F"/>
		<stop  offset="0.2219" style="stop-color:#084993"/>
		<stop  offset="0.3634" style="stop-color:#0253A0"/>
		<stop  offset="0.5" style="stop-color:#0056A4"/>
		<stop  offset="0.6366" style="stop-color:#0253A0"/>
		<stop  offset="0.7781" style="stop-color:#084993"/>
		<stop  offset="0.9213" style="stop-color:#13387F"/>
		<stop  offset="1" style="stop-color:#1B2D70"/>
	</linearGradient>
	<path class="st0" d="M100.1,44c0,0.2-0.2,0.3-0.3,0.3H0.3C0.1,44.3,0,44.2,0,44L0,32c0-2,2.4-3.7,2.4-3.7l10.2-10.2
		c0,0,1.7-2.4,3.7-2.4h83.5c0.2,0,0.3,0.2,0.3,0.3V44z"/>
	<linearGradient id="SVGID_2_" gradientUnits="userSpaceOnUse" x1="7.3293" y1="22.9166" x2="16.1552" y2="33.4348">
		<stop  offset="0.2" style="stop-color:#1B2D70"/>
		<stop  offset="1" style="stop-color:#0056A4"/>
	</linearGradient>
	<path class="st1" d="M16.3,32c0.2,2-1.3,2.2-2,2L1.5,31c0,0-1.5-0.5-1.5,1c0-2,2.4-3.7,2.4-3.7l10.2-10.2c0,0,1.7-2.4,3.7-2.4
		c0,0-1,0-1,2L16.3,32z"/>
	<linearGradient id="SVGID_3_" gradientUnits="userSpaceOnUse" x1="7.1948" y1="22.9356" x2="14.2047" y2="29.9454">
		<stop  offset="0" style="stop-color:#F18700"/>
		<stop  offset="1" style="stop-color:#FDC300"/>
	</linearGradient>
	<path class="st2" d="M14.3,29.7c0,0.2-0.2,0.3-0.3,0.3H2c0,0-2,0-2,2C0,30,2,28,2,28l10.2-10.2c0,0,2-2,4.1-2c-2,0-2,2-2,2V29.7z"
		/>
	<path class="st3" d="M30.3,36.1c-0.4,0-0.5-0.1-0.6-0.4l-1-3h-4.8l-1,3c-0.1,0.3-0.2,0.4-0.4,0.4h-1.8c-0.1,0-0.2-0.1-0.2-0.2
		c0-0.1,0-0.1,0-0.2l4.7-12.9c0.1-0.2,0.2-0.3,0.4-0.3h1.5c0.2,0,0.4,0.1,0.5,0.3l4.7,12.8c0,0.1,0,0.2,0,0.2c0,0.2-0.1,0.2-0.3,0.2
		H30.3z M26.3,25.4c-0.1,0.3-0.2,0.7-0.4,1.2L24.5,31h3.6l-1.4-4.3c-0.1-0.3-0.2-0.6-0.3-0.9C26.4,25.6,26.4,25.5,26.3,25.4l0.1-0.1
		l0,0h0l0,0L26.3,25.4L26.3,25.4z"/>
	<path class="st3" d="M33.6,36.1c-0.3,0-0.4-0.1-0.4-0.4l0-13.3c0-0.3,0.1-0.4,0.3-0.4l1.4-0.2c0,0,0.1,0,0.1,0c0,0,0,0,0.1,0
		c0.2,0,0.3,0.1,0.3,0.4l0,13.5c0,0.4-0.2,0.4-0.3,0.4H33.6z"/>
	<path class="st3" d="M37.4,40.2c-0.3,0-0.4-0.1-0.4-0.4V27c0-0.3,0.1-0.4,0.4-0.4h1.1c0.3,0,0.4,0.1,0.4,0.3l0.1,0.7l0.1-0.1
		c0.6-0.7,1.6-1.1,2.6-1.1c1.1,0,2,0.4,2.7,1.2c0.8,0.9,1.2,2.2,1.2,3.7c0,1.5-0.4,2.9-1.2,3.8c-0.7,0.9-1.7,1.3-2.9,1.3
		c-0.9,0-1.7-0.3-2.3-0.9l-0.1-0.1v4.4c0,0.4-0.2,0.4-0.4,0.4H37.4z M41.3,28.2c-0.8,0-1.7,0.5-2,1l0,0v4.4l0,0c0.4,0.6,1.2,1,1.9,1
		c0.6,0,1.2-0.3,1.6-0.8c0.5-0.6,0.7-1.4,0.7-2.5c0-1-0.2-1.8-0.6-2.3C42.5,28.5,41.9,28.2,41.3,28.2z"/>
	<path class="st3" d="M53.2,36.1c-0.2,0-0.3,0-0.3-0.3v-5.5c0-0.8-0.2-1.9-1.5-1.9c-0.7,0-1.7,0.4-2.4,1l0,0v6.5
		c0,0.3,0,0.3-0.3,0.3h-1.7c-0.2,0-0.2,0-0.2-0.3V22.4c0-0.3,0.1-0.4,0.4-0.4l1.3-0.2c0.1,0,0.2,0,0.2,0c0.2,0,0.3,0.1,0.3,0.3v5.4
		l0.1-0.1c0.7-0.6,1.9-1.1,3-1.1c2,0,3,1.2,3,3.5v5.9c0,0.3,0,0.3-0.2,0.3H53.2z"/>
	<path class="st3" d="M60.3,36.4c-1.2,0-2.2-0.5-2.9-1.4c-0.6-0.8-0.9-2-0.9-3.4c0-3.6,2.1-5.2,4.1-5.2c1,0,1.9,0.4,2.4,1.1l0.1,0.2
		l0.1-0.7c0-0.2,0.1-0.3,0.3-0.3h1.3c0.2,0,0.3,0.1,0.3,0.4v6.9c0,0.3,0,0.5,0.1,0.6c0.1,0.1,0.2,0.1,0.3,0.1h0.2
		c0.2,0,0.3,0.1,0.3,0.3v0.9c0,0.2-0.1,0.3-0.3,0.3h-0.9c-0.8,0-1.4-0.4-1.5-1.1l0-0.1H63l0,0C62.5,35.7,61.3,36.4,60.3,36.4z
		 M60.9,28.2c-1,0-2.2,0.8-2.2,3.2c0,2,0.8,3.2,2.1,3.2c0.9,0,1.8-0.7,2.1-1.4l0,0v-3.9l0,0C62.5,28.6,61.6,28.2,60.9,28.2z"/>
	<path class="st3" d="M71.5,36.4c-0.8,0-1.8-0.5-2.4-1.1L69,35.1L68.9,36c0,0.1-0.1,0.2-0.3,0.2h-1.2c-0.3,0-0.4-0.1-0.4-0.4V22.5
		c0-0.3,0.1-0.4,0.3-0.5l1.4-0.2c0.1,0,0.1,0,0.2,0c0.1,0,0.3,0,0.3,0.3v5.3l0.1-0.1c0.7-0.6,1.6-1,2.5-1c1,0,1.7,0.3,2.4,0.9
		c0.9,0.9,1.4,2.3,1.4,4.1C75.7,33.8,74.6,36.4,71.5,36.4z M71.3,28.3c-0.7,0-1.4,0.4-2,0.9l0,0v4.3l0,0c0.4,0.5,1.1,1,1.9,1
		c1.4,0,2.2-1.1,2.2-3.1C73.4,30,73.1,28.3,71.3,28.3z"/>
	<path class="st3" d="M81.4,36.4c-2.9,0-4.7-1.9-4.7-5c0-3,1.9-5,4.7-5c1.1,0,2,0.4,2.7,1.2c0.8,0.8,1.1,2.1,1.1,3.7v0.4
		c0,0.4-0.1,0.5-0.6,0.5h-5.7l0,0c0,1.2,1.3,2.5,2.8,2.5c0.7,0,1.6-0.2,2.4-0.5c0,0,0.1-0.1,0.2-0.1c0.1,0,0.2,0.1,0.2,0.2l0.3,1.1
		c0,0.1,0,0.1,0,0.2c0,0.1,0,0.2-0.3,0.3C83.6,36.2,82.3,36.4,81.4,36.4z M81.2,28.1c-1.3,0-2.1,1.1-2.2,2.3l0,0.2h4.2v-0.4
		C83.2,29.2,82.4,28.1,81.2,28.1z"/>
	<path class="st3" d="M89.6,36.4c-1,0-1.8-0.3-2.2-0.8c-0.6-0.7-0.6-1.5-0.6-2.9v-4.3h-0.8c-0.3,0-0.3,0-0.3-0.4v-1
		c0-0.1,0-0.3,0.3-0.3h0.9l-0.1-2.2c0-0.3,0.1-0.4,0.4-0.4l1.4-0.2l0.1,0c0.1,0,0.3,0,0.3,0.4v2.4h2.2c0.2,0,0.3,0.1,0.3,0.3V28
		c0,0.2-0.1,0.3-0.3,0.3h-2.2v4.4c0,0.6,0,1.1,0.3,1.4c0.2,0.3,0.5,0.5,1,0.5c0.5,0,0.9-0.1,1.3-0.2c0,0,0.1,0,0.2,0
		c0.1,0,0.1,0,0.2,0.2l0.2,1c0,0.1,0,0.1,0,0.1c0,0.2-0.1,0.2-0.2,0.3C91,36.2,90.2,36.4,89.6,36.4z"/>
</g>
</svg>
